<?xml version="1.0" encoding="UTF-8" standalone="no"?>
<svg
   height="10.9614mm"
   viewBox="0 0 8.4710464 10.9614"
   width="8.471046mm"
   version="1.1"
   id="svg152"
   sodipodi:docname="Happy_Mac.svg"
   xml:space="preserve"
   inkscape:version="1.2.2 (b0a84865, 2022-12-01)"
   xmlns:inkscape="http://www.inkscape.org/namespaces/inkscape"
   xmlns:sodipodi="http://sodipodi.sourceforge.net/DTD/sodipodi-0.dtd"
   xmlns="http://www.w3.org/2000/svg"
   xmlns:svg="http://www.w3.org/2000/svg"><defs
     id="defs156" /><sodipodi:namedview
     id="namedview154"
     pagecolor="#ffffff"
     bordercolor="#000000"
     borderopacity="0.25"
     inkscape:showpageshadow="2"
     inkscape:pageopacity="0.0"
     inkscape:pagecheckerboard="0"
     inkscape:deskcolor="#d1d1d1"
     inkscape:document-units="mm"
     showgrid="false"
     inkscape:zoom="22.786019"
     inkscape:cx="26.41971"
     inkscape:cy="13.560947"
     inkscape:window-width="1440"
     inkscape:window-height="784"
     inkscape:window-x="0"
     inkscape:window-y="25"
     inkscape:window-maximized="1"
     inkscape:current-layer="g150" /><g
     transform="matrix(.06455006 0 0 .06455006 2.296036 2.789874)"
     id="g150"><path
       d="m-30.937651 99.78759h122v26.80449h-122z"
       stroke-width="2.384127"
       id="path96" /><g
       transform="translate(-56.456402 -31.41017)"
       id="g108"><path
         d="m33.668747 136.75006v4.69998h31.950504v-4.69998zm41.740088 4.69998v4.69996h11.145573v-4.69996zm15.743224 4.69996v6.29987h11.318691v-6.29987z"
         fill="#555"
         id="path98" /><path
         d="m65.619251 136.75006v4.69998h20.935157v4.69996h15.916342v6.29987h20.86023v-6.29987h-15.87449v-4.69996h-16.304431v-4.69998z"
         fill="#444"
         id="path100" /><path
         d="m91.152059 136.75006v4.69998h16.304431v4.69996h15.87449v6.29987h16.03777v-6.29987-4.69996-4.69998z"
         fill="#222"
         id="path102" /><path
         d="m33.668747 141.45004v4.69996h41.740088v-4.69996zm41.740088 4.69996v6.29987h15.743224v-6.29987z"
         fill="#777"
         id="path104" /><path
         d="m33.668823 146.14999h41.74001v6.3h-41.74001z"
         fill="#888"
         id="path106" /></g><path
       d="m-30.969854-37.120319h122.032203v136.907898h-122.032203z"
       fill="#ccc"
       stroke-width=".264583"
       id="path110" /><path
       d="M -15.075892,-21.040771 H 74.98512 v 67.750002 h -90.061012 z"
       fill="#ccccff"
       stroke-width="0.264583"
       id="path112" /><path
       d="m-30.969856-43.220318h122.032203v6.1h-122.032203z"
       stroke-width="1.137491"
       id="path116" /><path
       d="m-15.075892-27.140776h90.061012v6.1h-90.061012z"
       fill="#444"
       stroke-width=".97719"
       id="path118" /><path
       d="m-21.040775 15.075892h67.75v6.1h-67.75z"
       fill="#444"
       stroke-width=".84755"
       transform="rotate(90)"
       id="path120" /><path
       d="m-21.040775-81.085121h67.75v6.1h-67.75z"
       fill="#fff"
       stroke-width=".84755"
       transform="rotate(90)"
       id="path122" /><path
       d="m-15.07589 46.709225h90.061013v6.1h-90.061013z"
       fill="#fff"
       stroke-width=".97719"
       id="path124" /><path
       d="m31.655506 73.81324h43.400002v5h-43.400002z"
       stroke-width=".26445"
       id="path126" /><path
       d="m31.655506 78.81324h43.400005v6h-43.400005z"
       fill="#fff"
       stroke-width=".28969"
       id="path128" /><path
       d="m-21.133041 73.785721h11.060395v5h-11.060395z"
       fill="#0b0"
       stroke-width=".133501"
       id="path130" /><path
       d="m-21.133041 78.785721h11.060396v6h-11.060396z"
       fill="#d00"
       stroke-width=".146243"
       id="path132" /><g
       stroke-width="1.046258"
       transform="rotate(90)"
       id="g148"><path
         d="m-37.120319 30.969854h136.907898v4.6h-136.907898z"
         id="path144" /><path
         d="m-37.120331-95.662346h136.907913v4.6h-136.907913z"
         id="path146" /></g><path
       d="M 26.929321,38.00641 Q 21.961613,37.75488 17.622728,35.679762 13.283844,33.604644 10.076843,30.240436 6.8698422,26.876229 5.0148112,22.41158 q -1.855031,-4.464649 -1.855031,-9.495239 0,-5.2192387 1.980796,-9.8096517 1.980795,-4.590414 5.3764438,-7.986063 3.395648,-3.3956476 7.986062,-5.3764423 4.590413,-1.980795 9.809651,-1.980795 9.369475,0 16.286535,5.9109423 6.917064,5.910944 8.489121,14.840242 h -3.835824 q -1.069,-5.28212 -4.464648,-9.432357 -3.395648,-4.150237 -8.489121,-6.225355 v 1.131882 q 0,2.200884 -1.509178,3.835826 -1.509177,1.634942 -3.71006,1.634942 h -5.470767 v 5.470767 q 0,1.069 -0.848912,1.760706 -0.848913,0.691706 -1.917913,0.691706 h -5.219238 v 5.5336507 h 6.917062 v 7.860297 H 20.326671 L 7.4986652,7.9486323 q -0.314412,1.2576472 -0.440176,2.4838547 -0.125765,1.226206 -0.125765,2.483854 0,8.489121 5.7222958,14.651595 5.722297,6.162473 14.274301,6.665531 z m 24.649892,-1.634941 -8.426237,-8.42624 q -1.32053,0.943237 -2.86115,1.446295 -1.540618,0.50306 -3.17556,0.50306 -4.464649,0 -7.577326,-3.11268 -3.112678,-3.112676 -3.112678,-7.577325 0,-4.464649 3.112678,-7.577327 3.112677,-3.1126787 7.577326,-3.1126787 4.46465,0 7.577327,3.1126787 3.112677,3.112678 3.112677,7.577327 0,1.634942 -0.534499,3.17556 -0.534501,1.540618 -1.414854,2.924031 l 8.42624,8.363355 z M 37.116266,26.121641 q 2.892589,0 4.904826,-2.012237 2.012237,-2.012236 2.012237,-4.904825 0,-2.89259 -2.012237,-4.904826 -2.012237,-2.012236 -4.904826,-2.012236 -2.892589,0 -4.904825,2.012236 -2.012237,2.012236 -2.012237,4.904826 0,2.892589 2.012237,4.904825 2.012236,2.012237 4.904825,2.012237 z"
       id="path454"
       style="stroke-width:1.25765" /></g></svg>
